<svg xmlns="http://www.w3.org/2000/svg" viewBox="0 0 200 160">
  <path fill="white" d="
    M60 55 L47 15 Q45 8 52 14 L80 46
    Q90 36 100 33 Q110 36 120 46
    L148 14 Q155 8 153 15 L140 55
    Q168 78 168 112
    Q168 155 100 162
    Q32 155 32 112
    Q32 78 60 55Z
  "/>
  <line x1="52" y1="108" x2="8" y2="98" stroke="white" stroke-width="7" stroke-linecap="round"/>
  <line x1="48" y1="120" x2="2" y2="120" stroke="white" stroke-width="7" stroke-linecap="round"/>
  <line x1="52" y1="132" x2="8" y2="142" stroke="white" stroke-width="7" stroke-linecap="round"/>
  <line x1="148" y1="108" x2="192" y2="98" stroke="white" stroke-width="7" stroke-linecap="round"/>
  <line x1="152" y1="120" x2="198" y2="120" stroke="white" stroke-width="7" stroke-linecap="round"/>
  <line x1="148" y1="132" x2="192" y2="142" stroke="white" stroke-width="7" stroke-linecap="round"/>
</svg>
