<svg xmlns="http://www.w3.org/2000/svg" viewBox="0 0 200 200">
  <!-- Spider body -->
  <ellipse cx="100" cy="72" rx="18" ry="22" fill="white"/>
  <ellipse cx="100" cy="110" rx="24" ry="32" fill="white"/>
  <!-- Connection -->
  <rect x="92" y="88" width="16" height="10" rx="4" fill="white"/>
  <!-- Left legs -->
  <!-- Front leg -->
  <path d="M82 78 Q50 50 30 20 Q28 16 24 22 Q36 52 58 76" stroke="white" stroke-width="6" fill="none" stroke-linecap="round" stroke-linejoin="round"/>
  <!-- Second leg -->
  <path d="M78 90 Q40 72 8 60 Q4 58 4 64 Q32 78 66 94" stroke="white" stroke-width="6" fill="none" stroke-linecap="round" stroke-linejoin="round"/>
  <!-- Third leg -->
  <path d="M78 112 Q40 118 6 136 Q2 138 4 144 Q38 128 70 116" stroke="white" stroke-width="6" fill="none" stroke-linecap="round" stroke-linejoin="round"/>
  <!-- Back leg -->
  <path d="M82 128 Q58 150 34 180 Q32 184 38 184 Q60 156 80 132" stroke="white" stroke-width="6" fill="none" stroke-linecap="round" stroke-linejoin="round"/>
  <!-- Right legs -->
  <!-- Front leg -->
  <path d="M118 78 Q150 50 170 20 Q172 16 176 22 Q164 52 142 76" stroke="white" stroke-width="6" fill="none" stroke-linecap="round" stroke-linejoin="round"/>
  <!-- Second leg -->
  <path d="M122 90 Q160 72 192 60 Q196 58 196 64 Q168 78 134 94" stroke="white" stroke-width="6" fill="none" stroke-linecap="round" stroke-linejoin="round"/>
  <!-- Third leg -->
  <path d="M122 112 Q160 118 194 136 Q198 138 196 144 Q162 128 130 116" stroke="white" stroke-width="6" fill="none" stroke-linecap="round" stroke-linejoin="round"/>
  <!-- Back leg -->
  <path d="M118 128 Q142 150 166 180 Q168 184 162 184 Q140 156 120 132" stroke="white" stroke-width="6" fill="none" stroke-linecap="round" stroke-linejoin="round"/>
</svg>
